<mxfile host="app.diagrams.net" modified="2023-12-11T16:09:25.663Z" agent="Mozilla/5.0 (Windows NT 10.0; Win64; x64) AppleWebKit/537.36 (KHTML, like Gecko) Chrome/120.0.0.0 Safari/537.36" etag="Eb2QfE1MnWnzrMULx7ju" version="22.1.7" type="github">
  <diagram id="C5RBs43oDa-KdzZeNtuy" name="Page-1">
    <mxGraphModel dx="1434" dy="808" grid="1" gridSize="10" guides="1" tooltips="1" connect="1" arrows="1" fold="1" page="1" pageScale="1" pageWidth="827" pageHeight="1169" math="0" shadow="0">
      <root>
        <mxCell id="WIyWlLk6GJQsqaUBKTNV-0" />
        <mxCell id="WIyWlLk6GJQsqaUBKTNV-1" parent="WIyWlLk6GJQsqaUBKTNV-0" />
        <mxCell id="WIyWlLk6GJQsqaUBKTNV-2" value="" style="rounded=0;html=1;jettySize=auto;orthogonalLoop=1;fontSize=11;endArrow=block;endFill=0;endSize=8;strokeWidth=1;shadow=0;labelBackgroundColor=none;edgeStyle=orthogonalEdgeStyle;" parent="WIyWlLk6GJQsqaUBKTNV-1" edge="1">
          <mxGeometry relative="1" as="geometry">
            <mxPoint x="219.5" y="121.25" as="sourcePoint" />
            <mxPoint x="219.5" y="171.25" as="targetPoint" />
          </mxGeometry>
        </mxCell>
        <mxCell id="WIyWlLk6GJQsqaUBKTNV-4" value="" style="rounded=0;html=1;jettySize=auto;orthogonalLoop=1;fontSize=11;endArrow=block;endFill=0;endSize=8;strokeWidth=1;shadow=0;labelBackgroundColor=none;edgeStyle=orthogonalEdgeStyle;entryX=0.444;entryY=0.2;entryDx=0;entryDy=0;entryPerimeter=0;" parent="WIyWlLk6GJQsqaUBKTNV-1" target="B0ZhU3Qw2iYHHfoQ9AOy-3" edge="1">
          <mxGeometry y="20" relative="1" as="geometry">
            <mxPoint as="offset" />
            <mxPoint x="220" y="250" as="sourcePoint" />
            <mxPoint x="220" y="290" as="targetPoint" />
            <Array as="points" />
          </mxGeometry>
        </mxCell>
        <mxCell id="B0ZhU3Qw2iYHHfoQ9AOy-0" value="início" style="ellipse;whiteSpace=wrap;html=1;fontSize=16;" vertex="1" parent="WIyWlLk6GJQsqaUBKTNV-1">
          <mxGeometry x="160" y="60" width="120" height="80" as="geometry" />
        </mxCell>
        <mxCell id="B0ZhU3Qw2iYHHfoQ9AOy-1" value="&amp;nbsp; quantidade inicial&lt;br&gt;&amp;nbsp; de peças" style="shape=display;whiteSpace=wrap;html=1;fontSize=16;" vertex="1" parent="WIyWlLk6GJQsqaUBKTNV-1">
          <mxGeometry x="130" y="171.25" width="150" height="77.5" as="geometry" />
        </mxCell>
        <mxCell id="B0ZhU3Qw2iYHHfoQ9AOy-24" value="" style="edgeStyle=none;curved=1;rounded=0;orthogonalLoop=1;jettySize=auto;html=1;fontSize=12;startSize=8;endSize=8;" edge="1" parent="WIyWlLk6GJQsqaUBKTNV-1" source="B0ZhU3Qw2iYHHfoQ9AOy-3">
          <mxGeometry relative="1" as="geometry">
            <mxPoint x="225" y="440" as="targetPoint" />
          </mxGeometry>
        </mxCell>
        <mxCell id="B0ZhU3Qw2iYHHfoQ9AOy-3" value="&lt;br&gt;quantidade&lt;br&gt;inicial&lt;br&gt;(x)" style="shape=manualInput;whiteSpace=wrap;html=1;fontSize=16;" vertex="1" parent="WIyWlLk6GJQsqaUBKTNV-1">
          <mxGeometry x="180" y="270" width="90" height="100" as="geometry" />
        </mxCell>
        <mxCell id="B0ZhU3Qw2iYHHfoQ9AOy-12" value="" style="edgeStyle=none;curved=1;rounded=0;orthogonalLoop=1;jettySize=auto;html=1;fontSize=12;startSize=8;endSize=8;" edge="1" parent="WIyWlLk6GJQsqaUBKTNV-1" target="B0ZhU3Qw2iYHHfoQ9AOy-11">
          <mxGeometry relative="1" as="geometry">
            <mxPoint x="395" y="370" as="sourcePoint" />
          </mxGeometry>
        </mxCell>
        <mxCell id="B0ZhU3Qw2iYHHfoQ9AOy-39" value="S" style="edgeLabel;html=1;align=center;verticalAlign=middle;resizable=0;points=[];fontSize=16;" vertex="1" connectable="0" parent="B0ZhU3Qw2iYHHfoQ9AOy-12">
          <mxGeometry x="0.165" y="1" relative="1" as="geometry">
            <mxPoint as="offset" />
          </mxGeometry>
        </mxCell>
        <mxCell id="B0ZhU3Qw2iYHHfoQ9AOy-69" value="" style="edgeStyle=none;curved=1;rounded=0;orthogonalLoop=1;jettySize=auto;html=1;fontSize=12;startSize=8;endSize=8;entryX=0.973;entryY=0.8;entryDx=0;entryDy=0;entryPerimeter=0;" edge="1" parent="WIyWlLk6GJQsqaUBKTNV-1" source="B0ZhU3Qw2iYHHfoQ9AOy-9" target="B0ZhU3Qw2iYHHfoQ9AOy-13">
          <mxGeometry relative="1" as="geometry">
            <mxPoint x="302.5" y="670" as="targetPoint" />
          </mxGeometry>
        </mxCell>
        <mxCell id="B0ZhU3Qw2iYHHfoQ9AOy-9" value="e - y = f (final)" style="rounded=1;whiteSpace=wrap;html=1;fontSize=16;" vertex="1" parent="WIyWlLk6GJQsqaUBKTNV-1">
          <mxGeometry x="567.5" y="709.9999999999999" width="120" height="60" as="geometry" />
        </mxCell>
        <mxCell id="B0ZhU3Qw2iYHHfoQ9AOy-59" value="" style="edgeStyle=none;curved=1;rounded=0;orthogonalLoop=1;jettySize=auto;html=1;fontSize=12;startSize=8;endSize=8;" edge="1" parent="WIyWlLk6GJQsqaUBKTNV-1" source="B0ZhU3Qw2iYHHfoQ9AOy-11" target="B0ZhU3Qw2iYHHfoQ9AOy-42">
          <mxGeometry relative="1" as="geometry">
            <Array as="points">
              <mxPoint x="520" y="430" />
            </Array>
          </mxGeometry>
        </mxCell>
        <mxCell id="B0ZhU3Qw2iYHHfoQ9AOy-11" value="x + z = e (estoque)" style="rounded=1;whiteSpace=wrap;html=1;fontSize=16;" vertex="1" parent="WIyWlLk6GJQsqaUBKTNV-1">
          <mxGeometry x="335" y="498.75" width="120" height="60" as="geometry" />
        </mxCell>
        <mxCell id="B0ZhU3Qw2iYHHfoQ9AOy-20" value="" style="edgeStyle=none;curved=1;rounded=0;orthogonalLoop=1;jettySize=auto;html=1;fontSize=12;startSize=8;endSize=8;" edge="1" parent="WIyWlLk6GJQsqaUBKTNV-1" source="B0ZhU3Qw2iYHHfoQ9AOy-13">
          <mxGeometry relative="1" as="geometry">
            <mxPoint x="220" y="806.25" as="targetPoint" />
          </mxGeometry>
        </mxCell>
        <mxCell id="B0ZhU3Qw2iYHHfoQ9AOy-13" value="resultado final" style="shape=display;whiteSpace=wrap;html=1;fontSize=16;" vertex="1" parent="WIyWlLk6GJQsqaUBKTNV-1">
          <mxGeometry x="145" y="610" width="150" height="77.5" as="geometry" />
        </mxCell>
        <mxCell id="B0ZhU3Qw2iYHHfoQ9AOy-21" value="fim" style="ellipse;whiteSpace=wrap;html=1;fontSize=16;" vertex="1" parent="WIyWlLk6GJQsqaUBKTNV-1">
          <mxGeometry x="160" y="810" width="120" height="80" as="geometry" />
        </mxCell>
        <mxCell id="B0ZhU3Qw2iYHHfoQ9AOy-26" value="" style="edgeStyle=none;curved=1;rounded=0;orthogonalLoop=1;jettySize=auto;html=1;fontSize=12;startSize=8;endSize=8;entryX=0.553;entryY=0;entryDx=0;entryDy=0;entryPerimeter=0;" edge="1" parent="WIyWlLk6GJQsqaUBKTNV-1" source="B0ZhU3Qw2iYHHfoQ9AOy-23" target="B0ZhU3Qw2iYHHfoQ9AOy-13">
          <mxGeometry relative="1" as="geometry">
            <mxPoint x="225" y="600" as="targetPoint" />
          </mxGeometry>
        </mxCell>
        <mxCell id="B0ZhU3Qw2iYHHfoQ9AOy-34" value="N" style="edgeLabel;html=1;align=center;verticalAlign=middle;resizable=0;points=[];fontSize=16;" vertex="1" connectable="0" parent="B0ZhU3Qw2iYHHfoQ9AOy-26">
          <mxGeometry x="-0.1019" y="1" relative="1" as="geometry">
            <mxPoint as="offset" />
          </mxGeometry>
        </mxCell>
        <mxCell id="B0ZhU3Qw2iYHHfoQ9AOy-28" value="" style="edgeStyle=none;curved=1;rounded=0;orthogonalLoop=1;jettySize=auto;html=1;fontSize=12;startSize=8;endSize=8;entryX=0.22;entryY=0.91;entryDx=0;entryDy=0;entryPerimeter=0;" edge="1" parent="WIyWlLk6GJQsqaUBKTNV-1" source="B0ZhU3Qw2iYHHfoQ9AOy-23">
          <mxGeometry relative="1" as="geometry">
            <mxPoint x="353" y="363.0250000000001" as="targetPoint" />
            <Array as="points" />
          </mxGeometry>
        </mxCell>
        <mxCell id="B0ZhU3Qw2iYHHfoQ9AOy-31" value="S" style="edgeLabel;html=1;align=center;verticalAlign=middle;resizable=0;points=[];fontSize=16;" vertex="1" connectable="0" parent="B0ZhU3Qw2iYHHfoQ9AOy-28">
          <mxGeometry x="-0.1185" relative="1" as="geometry">
            <mxPoint as="offset" />
          </mxGeometry>
        </mxCell>
        <mxCell id="B0ZhU3Qw2iYHHfoQ9AOy-23" value="adicionar ou subtrair peças?" style="rhombus;whiteSpace=wrap;html=1;fontSize=16;" vertex="1" parent="WIyWlLk6GJQsqaUBKTNV-1">
          <mxGeometry x="157.5" y="440" width="135" height="130" as="geometry" />
        </mxCell>
        <mxCell id="B0ZhU3Qw2iYHHfoQ9AOy-41" value="" style="edgeStyle=none;curved=1;rounded=0;orthogonalLoop=1;jettySize=auto;html=1;fontSize=12;startSize=8;endSize=8;" edge="1" parent="WIyWlLk6GJQsqaUBKTNV-1" source="B0ZhU3Qw2iYHHfoQ9AOy-35">
          <mxGeometry relative="1" as="geometry">
            <mxPoint x="550" y="330" as="targetPoint" />
          </mxGeometry>
        </mxCell>
        <mxCell id="B0ZhU3Qw2iYHHfoQ9AOy-43" value="N" style="edgeLabel;html=1;align=center;verticalAlign=middle;resizable=0;points=[];fontSize=16;" vertex="1" connectable="0" parent="B0ZhU3Qw2iYHHfoQ9AOy-41">
          <mxGeometry x="-0.058" relative="1" as="geometry">
            <mxPoint as="offset" />
          </mxGeometry>
        </mxCell>
        <mxCell id="B0ZhU3Qw2iYHHfoQ9AOy-35" value="&amp;nbsp; quantidade a &lt;br&gt;ser somada (z)?" style="rhombus;whiteSpace=wrap;html=1;fontSize=16;" vertex="1" parent="WIyWlLk6GJQsqaUBKTNV-1">
          <mxGeometry x="317.5" y="262.18" width="155" height="135.63" as="geometry" />
        </mxCell>
        <mxCell id="B0ZhU3Qw2iYHHfoQ9AOy-48" value="" style="edgeStyle=none;curved=1;rounded=0;orthogonalLoop=1;jettySize=auto;html=1;fontSize=12;startSize=8;endSize=8;" edge="1" parent="WIyWlLk6GJQsqaUBKTNV-1" source="B0ZhU3Qw2iYHHfoQ9AOy-42" target="B0ZhU3Qw2iYHHfoQ9AOy-47">
          <mxGeometry relative="1" as="geometry" />
        </mxCell>
        <mxCell id="B0ZhU3Qw2iYHHfoQ9AOy-42" value="&amp;nbsp; quantidade a &lt;br&gt;ser subtraída (y)?" style="rhombus;whiteSpace=wrap;html=1;fontSize=16;" vertex="1" parent="WIyWlLk6GJQsqaUBKTNV-1">
          <mxGeometry x="550" y="262.18" width="155" height="135.63" as="geometry" />
        </mxCell>
        <mxCell id="B0ZhU3Qw2iYHHfoQ9AOy-52" value="" style="edgeStyle=none;curved=1;rounded=0;orthogonalLoop=1;jettySize=auto;html=1;fontSize=12;startSize=8;endSize=8;" edge="1" parent="WIyWlLk6GJQsqaUBKTNV-1" source="B0ZhU3Qw2iYHHfoQ9AOy-47" target="B0ZhU3Qw2iYHHfoQ9AOy-9">
          <mxGeometry relative="1" as="geometry" />
        </mxCell>
        <mxCell id="B0ZhU3Qw2iYHHfoQ9AOy-53" value="S" style="edgeLabel;html=1;align=center;verticalAlign=middle;resizable=0;points=[];fontSize=16;" vertex="1" connectable="0" parent="B0ZhU3Qw2iYHHfoQ9AOy-52">
          <mxGeometry x="-0.0818" y="1" relative="1" as="geometry">
            <mxPoint as="offset" />
          </mxGeometry>
        </mxCell>
        <mxCell id="B0ZhU3Qw2iYHHfoQ9AOy-58" value="" style="edgeStyle=none;curved=1;rounded=0;orthogonalLoop=1;jettySize=auto;html=1;fontSize=12;startSize=8;endSize=8;entryX=0.953;entryY=0.194;entryDx=0;entryDy=0;entryPerimeter=0;" edge="1" parent="WIyWlLk6GJQsqaUBKTNV-1" source="B0ZhU3Qw2iYHHfoQ9AOy-47" target="B0ZhU3Qw2iYHHfoQ9AOy-55">
          <mxGeometry relative="1" as="geometry" />
        </mxCell>
        <mxCell id="B0ZhU3Qw2iYHHfoQ9AOy-60" value="N" style="edgeLabel;html=1;align=center;verticalAlign=middle;resizable=0;points=[];fontSize=16;" vertex="1" connectable="0" parent="B0ZhU3Qw2iYHHfoQ9AOy-58">
          <mxGeometry x="0.0182" y="-2" relative="1" as="geometry">
            <mxPoint as="offset" />
          </mxGeometry>
        </mxCell>
        <mxCell id="B0ZhU3Qw2iYHHfoQ9AOy-47" value="&amp;nbsp; quantidade a &lt;br&gt;ser subtraída (y) &amp;lt;= ao estoque?" style="rhombus;whiteSpace=wrap;html=1;fontSize=16;" vertex="1" parent="WIyWlLk6GJQsqaUBKTNV-1">
          <mxGeometry x="550" y="489.99999999999994" width="155" height="135.63" as="geometry" />
        </mxCell>
        <mxCell id="B0ZhU3Qw2iYHHfoQ9AOy-67" value="" style="edgeStyle=none;curved=1;rounded=0;orthogonalLoop=1;jettySize=auto;html=1;fontSize=12;startSize=8;endSize=8;exitX=0;exitY=0.5;exitDx=0;exitDy=0;exitPerimeter=0;" edge="1" parent="WIyWlLk6GJQsqaUBKTNV-1" source="B0ZhU3Qw2iYHHfoQ9AOy-55" target="B0ZhU3Qw2iYHHfoQ9AOy-13">
          <mxGeometry relative="1" as="geometry">
            <mxPoint x="285" y="840" as="targetPoint" />
          </mxGeometry>
        </mxCell>
        <mxCell id="B0ZhU3Qw2iYHHfoQ9AOy-55" value="estoque &lt;br&gt;insuficiente" style="shape=display;whiteSpace=wrap;html=1;fontSize=16;" vertex="1" parent="WIyWlLk6GJQsqaUBKTNV-1">
          <mxGeometry x="400" y="610" width="150" height="77.5" as="geometry" />
        </mxCell>
        <mxCell id="B0ZhU3Qw2iYHHfoQ9AOy-70" style="edgeStyle=none;curved=1;rounded=0;orthogonalLoop=1;jettySize=auto;html=1;exitX=0;exitY=0.5;exitDx=0;exitDy=0;exitPerimeter=0;fontSize=12;startSize=8;endSize=8;" edge="1" parent="WIyWlLk6GJQsqaUBKTNV-1" source="B0ZhU3Qw2iYHHfoQ9AOy-1" target="B0ZhU3Qw2iYHHfoQ9AOy-1">
          <mxGeometry relative="1" as="geometry" />
        </mxCell>
      </root>
    </mxGraphModel>
  </diagram>
</mxfile>
